<svg version="1.2" xmlns="http://www.w3.org/2000/svg" viewBox="0 0 1549 1021" width="1549" height="1021">
	<title>HP-Logo-BW-svg</title>
	<style>
		.s0 { fill: #ffffff } 
	</style>
	<g id="Layer">
		<path id="Layer" class="s0" d="m772.4 482.9q-4.8 4.6-9.4 9.4c-1 0.9-1.9 1.9-2.8 2.9-0.6 0.6-1.2 1.2-1.7 1.9-1 1.1-1.9 2.2-2.8 3.2-1.2 1.6-2.5 3.2-3.6 4.8q-0.4 0.6-0.8 1.2-0.4 0.5-0.7 1.1-0.4 0.6-0.7 1.2-0.4 0.6-0.7 1.2c-0.4 0.6-0.7 1.4-1.1 2q-0.3 0.7-0.5 1.3-0.3 0.7-0.5 1.4-0.3 0.7-0.5 1.3-0.2 0.7-0.3 1.4-0.1 0.4-0.2 0.8-0.1 0.4-0.2 0.8-0.1 0.4-0.1 0.7-0.1 0.4-0.2 0.8 0 0.4 0 0.8-0.1 0.3-0.1 0.7 0 0.4 0 0.8 0 0.3 0 0.7 0 0.3 0 0.7 0 0.3 0 0.6 0 0.3 0.1 0.6 0 0.3 0 0.6 0.1 0.3 0.1 0.6 0.1 0.3 0.2 0.6 0 0.2 0.1 0.5 0.1 0.3 0.2 0.6 0.1 0.2 0.2 0.5 0 0.2 0.1 0.4 0.1 0.3 0.2 0.5 0.2 0.3 0.3 0.5 0.2 0.4 0.5 0.9 0.3 0.4 0.7 0.8 0.3 0.4 0.7 0.8 0.3 0.4 0.8 0.7 0.2 0.2 0.4 0.4 0.3 0.2 0.6 0.4 0.2 0.1 0.5 0.3 0.3 0.1 0.5 0.3 0.2 0 0.3 0.1 0.2 0.1 0.4 0.2 0.1 0.1 0.3 0.1 0.1 0.1 0.3 0.2 0.4 0.1 0.8 0.3 0.4 0.1 0.8 0.3 0.5 0.1 0.9 0.2 0.4 0.1 0.8 0.2c0.8 0.2 1.5 0.3 2.2 0.4 0.8 0 1.8 0.2 2.7 0.2h2 0.8c0.7 0 1.4 0 2.2 0 0.8 0 2.2-0.1 3.3-0.1l3-0.1c0 0 0-53.7-0.1-53.7z"/>
		<path id="Layer" fill-rule="evenodd" class="s0" d="m1312.3 136.4c8.3 3.5 15.8 8.7 22.1 15.1 6.3 6.5 11.3 14.1 14.7 22.4 3.5 8.3 5.2 17.3 5.2 26.3v364.7c0 9.2-1.8 18.2-5.3 26.7-3.5 8.4-8.7 16.1-15.2 22.6-6.4 6.4-14.1 11.5-22.6 15-8.5 3.5-17.5 5.3-26.7 5.3h-168.3v71.5h60.7v184h-291.9v-184h51.6v-79.9c-1.3 0.7-2.5 1.3-3.6 2.1l-7.9 4.9c-2.5 1.7-5.2 3.3-7.8 4.8-6 3.6-12.2 6.9-18.4 10.2-3.2 1.7-6.4 3.3-9.6 4.9-7.4 3.6-14.8 6.9-22.4 9.9-6.9 2.8-13.9 5-21 7.3q-2.3 0.6-4.5 1.2-2.3 0.6-4.6 1.1-2.3 0.6-4.5 1-2.3 0.5-4.6 0.9-2.1 0.4-4.1 0.7-2.1 0.3-4.2 0.5-2 0.2-4.1 0.4-2.1 0.2-4.1 0.3-4.1 0.3-8.1 0.4-4.1 0-8.1-0.1-4-0.1-8.1-0.4-4-0.3-8-0.7c-1-0.1-1.8-0.2-2.8-0.4-1.2-0.2-2.5-0.4-3.7-0.7v31.5h51.8v184.1h-288.8v-184.1h51.7v-131.4h-155.3v131.4h51.8v184.1h-288.8v-184.1h51.7v-369.7h-51.7v-205.6h288.8v205.6h-51.8v131.5h155.3v-131.5h-51.7v-205.6h289.2v205.6h-51.8v118.7l1.2-0.6 0.9-0.4c1.1-0.8 2.3-1.6 3.5-2.3 1.8-1.1 3.7-2.2 5.6-3.3 3.1-1.8 6.5-3.5 9.8-5.2 5-2.5 10-5 15.1-7.4 6.8-3.3 13.7-6.5 20.6-9.6 8-3.6 15.9-7.3 23.9-10.6 8-3.4 16.1-6.5 24.1-9.7q10.4-4.1 20.9-8 7.4-2.8 15-5.4c3.4-1 6.7-2.2 10.1-3.2 2.2-0.7 4.4-1.3 6.6-1.9 1.7-0.4 3.3-0.9 5-1.2l1.5-0.4v-49.4h-51.8v-205.6h401.3c9.1 0.2 17.9 2.1 26.2 5.7zm-375.7 249.4q0.3-0.1 0.5-0.2l-0.5 0.1zm0.5-0.2v20.4c1.3-0.4 2.6-0.7 3.8-1.1l6.5-1.9c1.3-0.4 2.6-0.7 3.9-1.1 0.9-0.4 1.7-0.6 2.8-1 1-0.3 2.2-0.6 3.3-0.9 2.9-0.8 5.8-1.6 8.8-2.3q5.3-1.3 10.6-2.4c1.3-0.3 2.6-0.5 3.8-0.7 0.7-0.2 1.5-0.4 2.1-0.4q0.1 0 0.2 0 0.1 0 0.2 0 0.1 0 0.2 0 0.1 0 0.1 0l2.3-0.2q0.3 0 0.7 0 0.4 0 0.8 0 0.3 0 0.7 0 0.4 0 0.8 0c0.3 0.2 0.6 0.1 1 0.2 0.5 0 1 0.2 1.6 0.3q0.1 0 0.2 0.1 0.2 0 0.3 0 0.1 0.1 0.2 0.2 0.2 0 0.3 0.1 0.1 0 0.2 0.1 0.1 0 0.2 0.1 0 0 0.1 0.1 0.1 0.1 0.2 0.2 0.1 0.1 0.2 0.2 0.1 0.1 0.2 0.3 0.1 0.1 0.2 0.2 0.1 0.2 0.2 0.3 0 0.1 0.1 0.2 0 0 0 0.1 0 0.1 0 0.2 0.1 0 0.1 0.1 0 0.1 0 0.2 0 0.1 0 0.2 0 0.1 0 0.2 0 0.1 0 0.1c-0.1 0.3-0.1 0.6-0.1 0.9q-0.1 0.1-0.1 0.3 0 0.1-0.1 0.2 0 0.2-0.1 0.3 0 0.1-0.1 0.3 0 0.1-0.1 0.3-0.1 0.2-0.1 0.4-0.1 0.1-0.2 0.3-0.1 0.1-0.2 0.3c-0.3 0.6-0.5 0.9-1 1.7q-0.9 1.2-1.7 2.2c-1 1.4-2.1 2.6-3.4 3.9-1.2 1.2-2.3 2.4-3.8 3.8-1.6 1.5-3.2 3-4.8 4.3-1 0.8-1.9 1.4-3.2 2.4-1.2 0.9-2.5 1.8-3.9 2.7-3.3 2.3-6.7 4.4-10.1 6.4q-6.1 3.6-12.2 7l-11.8 6.5v-35.7c-6.5 2.4-13 4.9-19.6 7.3l-14.6 5.3c-7 2.7-14.1 5.5-21.2 8.3-8.5 3.4-16.9 6.8-25.3 10.3l-16.4 7c-3.8 1.7-7.6 3.3-11.4 5.1-2.4 1.1-4.9 2.3-7.3 3.5-6.6 3.2-13.2 6.8-19.6 10.5-5 2.9-9.9 5.8-14.8 8.9-2.4 1.5-4.6 3.1-6.8 4.7l-6.8 5.2-0.5 0.5v-27.8l-0.9 0.7-2.9 2.2-7 5q-2.9 2.1-5.7 4.4-2.7 2.2-5.3 4.7-2.6 2.5-4.9 5.2-2.4 2.7-4.6 5.6c-1.7 2.5-3.5 5-5.2 7.6q-1.7 2.8-3.2 5.7-1.5 2.8-2.8 5.8-1.3 3-2.5 6-1.1 3.1-2 6.2-0.4 1.4-0.7 2.8-0.3 1.5-0.4 2.9-0.2 1.5-0.3 2.9-0.1 1.5-0.1 3 0 0.7 0 1.4 0.1 0.7 0.1 1.5 0.1 0.7 0.2 1.4 0 0.7 0.1 1.4 0.2 1.1 0.5 2.2 0.3 1 0.8 2.1 0.4 1 1 1.9 0.6 0.9 1.2 1.8 0.7 0.8 1.4 1.7 0.7 0.8 1.5 1.5 0.7 0.8 1.5 1.5 0.8 0.7 1.6 1.4 2 1.6 4.1 3 2.1 1.3 4.4 2.4 2.3 1.2 4.7 2 2.3 0.9 4.8 1.5l2.2 0.5q-7.2 7.8-14 15.9c-2.9 3.5-5.6 7-8.2 10.6q-1.7 2.3-3.2 4.6-1.6 2.3-3.1 4.7-1.4 2.4-2.8 4.8-1.4 2.4-2.7 4.9-0.4 0.9-0.8 1.8-0.4 0.8-0.8 1.7-0.4 0.9-0.7 1.8-0.4 0.9-0.7 1.8-0.7 2.1-1.2 4.3-0.5 2.1-0.7 4.3-0.3 2.2-0.4 4.4-0.1 2.2 0 4.4 0.2 3.1 0.9 6.2 0.6 3 1.6 5.9 1.1 2.9 2.5 5.7 1.4 2.7 3.2 5.2 1.1 1.5 2.2 2.9 1.1 1.4 2.3 2.7 1.3 1.3 2.6 2.6 1.3 1.2 2.7 2.4 3.1 2.5 6.5 4.6 3.4 2.2 7 3.8 3.6 1.7 7.5 2.9 3.8 1.2 7.7 1.9l6.4 1.6 1.3 0.3 1.3 0.3 2 0.5v-22.4l13.8 2.3c3.2 0.5 6.5 1 9.6 1.2 3.2 0.3 6.4 0.5 9.5 0.5q1.1 0 2.3 0 1.1 0 2.2-0.1 1.1 0 2.2-0.1 1.1 0 2.2-0.1 4.7-0.5 9.3-1.4c3.4-0.8 6.8-1.6 10.2-2.6q5.4-1.6 10.8-3.6l15.2-5.6 14.3-6.1c4.6-2.1 9.2-4.2 13.8-6.5 5.3-2.7 10.4-5.7 15.5-8.8 6.2-4.1 12.4-8.2 18.4-12.6l8.3-6 6.3-4.7v-32l-9.6 4-14.1 5.9-23.2 12.1-21.7 11.6-24.8 14.2-18 10.5-1.6 1-2.2 1.1h-1.6l-1-1.1-0.6-1v-9l0.3-1.7c0.1-1 0.3-2 0.5-3q0.1-0.2 0.2-0.5 0-0.3 0.1-0.6 0.1-0.3 0.2-0.5 0.1-0.3 0.2-0.6 0.1-0.2 0.1-0.4 0.1-0.2 0.2-0.5 0.1-0.2 0.2-0.4 0.1-0.2 0.3-0.4c0.4-0.8 0.7-1.5 1.3-2.2 0.6-0.8 1.1-1.5 1.7-2.2q0.3-0.4 0.6-0.8 0.3-0.3 0.7-0.7 0.3-0.3 0.6-0.7 0.3-0.3 0.7-0.6c0.6-0.6 1-1.1 1.9-1.8 0.9-0.8 1.7-1.5 2.7-2.2 2.5-2 5.1-3.9 7.8-5.7 3.2-2.3 6.5-4.3 9.8-6.5 4.9-3.3 9.8-6.6 14.8-9.7 3.6-2.3 7.3-4.5 11.1-6.8 2.8-1.7 5.8-3.4 8.8-5 4.4-2.2 8.9-4.6 13.4-6.6 2.5-1 5-2.2 7.4-3.2 3.4-1.4 7-2.9 10.1-4.1 3.2-1.3 6.4-2.6 9.5-3.8l5.6-2.2 2.7-1c1-0.2 1.8-0.6 2.8-0.8l1.4-0.4 0.7-0.2v26.2l1.8-0.6 5-1.5 10.8-2.8q0.1 0 0.2-0.1 0.2 0 0.3 0 0.1-0.1 0.3-0.1 0.1 0 0.2 0l1.4-0.2c1.3-0.2 2.7-0.4 4.1-0.4q0.2 0 0.4 0 0.2 0 0.5 0 0.2 0 0.4 0 0.2 0 0.5 0h1.4q0.1 0 0.2 0 0.1 0 0.3 0 0.1 0 0.2 0 0.1 0 0.2 0 0.1 0 0.2 0 0.1 0 0.2 0 0.1 0 0.1 0 0.1 0 0.2 0 0.1 0 0.3 0.1 0.1 0 0.2 0 0.1 0.1 0.3 0.1 0.1 0 0.2 0.1 0.1 0 0.2 0.1 0.1 0 0.2 0 0.1 0.1 0.2 0.1 0 0.1 0.1 0.1c0.2 0.2 0.4 0.3 0.6 0.4q0.1 0.2 0.3 0.3 0.1 0.2 0.3 0.4 0.1 0.2 0.2 0.4 0.1 0.2 0.1 0.4 0 0.1 0.1 0.2 0 0.1 0 0.2 0 0.1 0 0.2 0 0.1 0 0.2 0.1 0.1 0.1 0.2 0 0.1 0 0.2 0 0.2 0 0.3 0 0.1-0.1 0.2 0 0.2 0 0.3 0 0.2-0.1 0.3 0 0.2 0 0.4-0.1 0.1-0.1 0.3-0.1 0.2-0.1 0.4-0.1 0.2-0.2 0.4 0 0.2-0.1 0.4-0.1 0.2-0.2 0.4-0.1 0.4-0.3 0.7-0.1 0.4-0.3 0.8-0.2 0.4-0.4 0.7-0.2 0.4-0.4 0.8-0.1 0.1-0.2 0.3-0.1 0.2-0.2 0.4-0.2 0.1-0.3 0.3-0.1 0.2-0.2 0.3l-1.2 1.6q-0.2 0.3-0.4 0.6-0.2 0.2-0.5 0.5-0.2 0.2-0.4 0.5-0.2 0.3-0.4 0.5c-0.9 0.9-1.7 1.7-2.7 2.7-0.9 0.9-2 1.9-3.1 2.9l-5.3 4.7-15.1 12.3v28.4l0.6-0.5 12.5-9.3c3.7-2.7 7.3-5.4 10.8-8.3q1.5-1.1 2.8-2.3 1.4-1.2 2.8-2.4 1.3-1.3 2.7-2.6 1.3-1.2 2.5-2.6 1.4-1.3 2.6-2.7 1.3-1.4 2.5-2.9 1.2-1.5 2.3-3 1.1-1.6 2.1-3.1l2.2-3.4 2.7-5.3q0.6-1.1 1.1-2.2 0.5-1.1 0.9-2.3 0.5-1.1 0.9-2.3 0.4-1.2 0.8-2.4 0.6-1.8 1-3.7 0.4-1.8 0.6-3.7 0.2-2 0.3-3.9 0-1.9-0.1-3.8-0.1-1.4-0.3-2.7-0.2-1.3-0.6-2.6-0.3-1.3-0.7-2.6-0.5-1.3-1-2.5-0.7-1.4-1.6-2.6-0.8-1.3-1.9-2.4-1.1-1.1-2.3-1.9-1.3-0.9-2.7-1.6-0.6-0.3-1.2-0.5-0.6-0.2-1.2-0.4-0.7-0.3-1.3-0.4-0.7-0.2-1.3-0.3-0.6-0.1-1.1-0.2-0.6-0.1-1.1-0.2-0.6-0.1-1.1-0.1-0.6 0-1.1-0.1h-0.9q-0.9 0-1.9 0-0.9 0.1-1.8 0.1-0.9 0.1-1.8 0.1-1 0.1-1.9 0.2 0 0 0 0 0 0-0.1 0 0 0 0 0 0 0-0.1 0-2.4 0.4-4.9 0.8-2.5 0.5-5 1-2.4 0.6-4.8 1.2-2.5 0.7-4.9 1.4c-2 0.7-4 1.5-6 2.3v-73.1c-5.4 2.1-10.6 4.4-16 6.5-5.4 2.2-11 4.2-16.5 6.2-1.4 0.5-2.8 0.9-4.2 1.4l-1.8 0.6h-1.7l-1.6-1.1q-0.1-0.1-0.2-0.2-0.1-0.1-0.2-0.2-0.1-0.2-0.2-0.3-0.1-0.1-0.2-0.2-0.1-0.2-0.2-0.4-0.1-0.1-0.1-0.3-0.1-0.2-0.2-0.3-0.1-0.2-0.2-0.4 0-0.2-0.1-0.4-0.1-0.2-0.2-0.5 0-0.2-0.1-0.4 0-0.2-0.1-0.5 0-0.1-0.1-0.2 0-0.2 0-0.3-0.1-0.2-0.1-0.3 0-0.2 0-0.3 0-0.7 0-1.4 0-0.2 0-0.4 0-0.2 0-0.4 0-0.2 0-0.4 0-0.2 0-0.5c0.1-0.6 0.2-1.3 0.2-1.9q0.1-0.7 0.2-1.3 0.1-0.6 0.3-1.2 0.1-0.6 0.3-1.2 0.1-0.6 0.3-1.3 0.2-0.6 0.4-1.3 0.3-0.6 0.5-1.3 0.3-0.6 0.5-1.3 0.3-0.6 0.6-1.2l1.1-0.6 2.6-0.8c2.3-0.8 4.5-1.6 6.8-2.5 2.4-0.8 4.6-1.8 6.8-2.7 4.1-1.7 8.1-3.5 12.1-5.4 1.5-0.7 3.2-1.6 4.4-2.3 1.2-0.6 2.5-1.3 3.7-2 0.9-0.4 1.8-0.7 2.7-1.1h0.5v24.1q1.4-0.6 2.7-1.1 1.3-0.6 2.6-1.2 1.3-0.6 2.5-1.2 1.3-0.7 2.5-1.4c4.9-2.6 10-5.5 14.4-8.3 4.5-2.7 8.8-5.5 13.1-8.8 4.3-3.4 8.4-6.9 12.4-10.5l2-2q3.3-3.5 6.6-7.2 1.7-1.8 3.3-3.7 1.5-1.9 3-3.8 1.4-2 2.8-4.1 1.3-2 2.5-4.1 0.6-1.1 1.1-2.1 0.5-1.1 1-2.2 0.4-1.1 0.9-2.2 0.4-1.1 0.7-2.2 0.3-0.7 0.4-1.5 0.2-0.8 0.4-1.5 0.1-0.8 0.2-1.6 0.1-0.7 0.2-1.5 0.1-0.6 0.1-1.1 0-0.6 0-1.1-0.1-0.6-0.1-1.1-0.1-0.6-0.2-1.1-0.1-0.9-0.4-1.8-0.2-0.8-0.6-1.7-0.4-0.8-0.8-1.5-0.5-0.8-1.1-1.5-0.5-0.5-1-1-0.5-0.5-1.1-1-0.6-0.4-1.2-0.8-0.6-0.4-1.2-0.8-1.2-0.6-2.4-1-1.2-0.5-2.4-0.9-1.2-0.4-2.5-0.6-1.3-0.3-2.6-0.4-1.9-0.3-3.9-0.4-2-0.2-4-0.2-2-0.1-4 0-2 0.1-4 0.2c-3 0.3-6.1 0.7-9.1 1.2-2.2 0.4-4.6 0.7-6.8 1.3q-3.3 0.7-6.5 1.5-3.3 0.9-6.6 1.8-3.2 0.9-6.5 1.9-2.9 0.9-5.9 1.8zm-164.4 266.3v-0.2 0.3zm0-80.5h0.1l-0.1 0.1zm0.1-0.1v-34.6q0.2 0 0.4 0 0.3 0 0.5 0 0.2 0 0.5-0.1 0.2 0 0.4 0l1.2-0.2q0.8-0.2 1.7-0.4 0.8-0.1 1.7-0.3 0.8-0.3 1.6-0.5 0.8-0.2 1.6-0.5c1.6-0.4 3.1-0.9 4.6-1.4 2.2-0.7 4.3-1.5 6.5-2.3 6.4-2.3 12.8-4.7 19.1-7.3 8-3.1 16-6.3 24-9.5l2.7-1 5.8-2.6 4.7-2.2h1.3q0.2 0 0.3 0 0.2 0 0.3 0.1 0.2 0 0.3 0.1 0.1 0.1 0.3 0.2c0.1 0 0.2 0.2 0.3 0.3q0 0.1 0.1 0.1 0 0.1 0.1 0.2 0 0 0.1 0.1 0 0.1 0 0.1 0.1 0.1 0.1 0.2 0.1 0.1 0.1 0.2 0.1 0.1 0.1 0.2 0 0.1 0.1 0.2c0 0.4 0.2 0.8 0.2 1.3q0.1 0.2 0.1 0.5 0 0.3 0.1 0.5 0 0.3 0 0.5 0 0.3 0 0.5 0 0.5 0.1 0.9 0 0.4 0 0.8 0 0.5 0 0.9-0.1 0.4-0.1 0.8 0 0.7-0.1 1.3 0 0.6-0.1 1.3-0.1 0.6-0.2 1.2-0.1 0.7-0.2 1.3c-0.3 1.7-0.6 3.4-1.1 5.2q-0.1 0.2-0.1 0.4-0.1 0.2-0.2 0.4 0 0.2-0.1 0.5-0.1 0.2-0.1 0.4c-0.2 0.4-0.4 0.8-0.6 1.3l-0.5 1.1-1.6 0.5-10.3 3.9c-4.8 1.9-9.5 3.7-14.3 5.7-4.2 1.8-8.3 3.5-12.4 5.5-3.2 1.4-6.4 3-9.5 4.6-2.5 1.3-5.2 2.9-7.3 4.1-2.1 1.2-4.3 2.5-6.1 3.7-1.9 1.3-3.8 2.5-5.6 3.8l-9 6.5zm0 0.1v80.1l-3.9-1.3c-1.4-0.5-2.9-1-4.1-1.5-1.2-0.4-2.5-0.9-3.7-1.4q-0.2-0.1-0.5-0.2-0.3-0.1-0.5-0.2-0.3-0.1-0.5-0.2-0.3-0.2-0.6-0.3l-1.6-0.8q-0.1 0-0.3-0.1-0.2-0.1-0.3-0.2-0.2-0.1-0.3-0.2-0.2 0-0.3-0.1c-0.6-0.4-1.4-0.8-1.8-1.2-0.5-0.4-1-0.8-1.4-1.2q-0.5-0.4-1-0.8-0.5-0.5-0.9-1-0.4-0.4-0.8-1-0.4-0.5-0.7-1-0.3-0.5-0.5-0.9-0.3-0.5-0.5-0.9-0.3-0.5-0.5-1-0.2-0.5-0.4-0.9c-0.3-0.8-0.5-1.5-0.8-2.4q-0.4-1.4-0.6-2.8-0.1-0.4-0.2-0.8-0.1-0.4-0.2-0.9 0-0.4-0.1-0.8 0-0.4-0.1-0.8 0-0.5-0.1-1 0-0.5-0.1-1 0-0.4 0-0.9-0.1-0.5-0.1-1 0-1.1 0-2.3 0.1-1.2 0.1-2.3 0.1-1.2 0.2-2.3 0.2-1.2 0.3-2.3c0.3-1.7 0.6-3.3 1-4.9q0.1-0.5 0.3-1.1 0.1-0.6 0.3-1.1 0.1-0.6 0.3-1.1 0.2-0.6 0.3-1.1 0.2-0.5 0.4-1 0.1-0.5 0.3-1 0.2-0.5 0.4-1 0.2-0.4 0.4-0.9c0.6-1.3 1.2-2.5 1.8-3.7q0.4-0.8 0.9-1.6 0.5-0.8 0.9-1.5 0.5-0.8 1-1.6 0.5-0.7 1.1-1.4l2-2.6c0.8-1 1.6-2 2.5-3 0.9-1.1 1.9-2.2 2.9-3.3 2.1-2.3 4.4-4.7 6.6-6.9zm404.2-204.7c0-4-0.8-8-2.4-11.7-1.5-3.7-3.8-7.1-6.6-9.9-2.9-2.9-6.3-5.1-10-6.6-3.7-1.6-7.7-2.4-11.7-2.4h-30.1v221.5h30.1c4 0 8-0.8 11.7-2.4 3.7-1.5 7.1-3.7 10-6.6 2.8-2.8 5.1-6.2 6.6-9.9 1.6-3.7 2.4-7.7 2.4-11.7z"/>
		<path id="Layer" fill-rule="evenodd" class="s0" d="m1472.2 1020.6h-1395.4c-10.1 0.1-20.1-1.9-29.4-5.7-9.3-3.9-17.7-9.5-24.8-16.6-7.2-7.1-12.8-15.5-16.7-24.8-3.9-9.3-5.9-19.2-5.9-29.3l0.2-867.4c0-10 2-20 5.9-29.3 3.9-9.2 9.5-17.6 16.7-24.7 7.1-7.1 15.5-12.7 24.8-16.6 9.3-3.8 19.2-5.8 29.3-5.8l1395.3-0.4c10 0 20 2 29.3 5.8 9.3 3.9 17.7 9.5 24.9 16.6 7.1 7.1 12.7 15.5 16.6 24.8 3.9 9.3 5.9 19.2 5.9 29.3v867.8c0 10.1-2 20-5.9 29.3-3.9 9.2-9.5 17.7-16.6 24.7-7.2 7.1-15.6 12.7-24.9 16.6-9.3 3.8-19.2 5.8-29.3 5.7zm-1395.3-992.1c-6.3 0-12.6 1.2-18.5 3.7-5.9 2.4-11.2 6-15.7 10.4-4.5 4.5-8.1 9.9-10.5 15.7-2.5 5.9-3.8 12.2-3.8 18.5l-0.2 867.4q0 4.8 0.9 9.5 1 4.6 2.8 9 1.8 4.4 4.5 8.4 2.6 4 6 7.3 3.4 3.4 7.4 6 4 2.7 8.4 4.5 4.4 1.8 9.1 2.7 4.7 1 9.4 1h1395.5c6.4 0 12.7-1.3 18.6-3.7 5.8-2.4 11.2-6 15.7-10.5 4.5-4.5 8.1-9.8 10.5-15.6 2.5-5.9 3.7-12.2 3.8-18.6v-867.8c-0.1-6.4-1.3-12.7-3.8-18.5-2.4-5.9-6-11.2-10.5-15.7-4.5-4.5-9.9-8.1-15.7-10.5-5.9-2.4-12.2-3.7-18.6-3.6z"/>
	</g>
</svg>